<svg xmlns="http://www.w3.org/2000/svg" viewBox="0 0 1921 1081"><defs><style>.cls-1{isolation:isolate;}.cls-2{fill:#7c1d7c;}.cls-3{fill:#c9c;}.cls-4{fill:#1f7a53;}.cls-5{fill:#00b1c0;}.cls-19,.cls-6{fill:#d1f1fd;}.cls-24,.cls-6,.cls-7,.cls-8{stroke:#3fa9f5;}.cls-10,.cls-23,.cls-24,.cls-6,.cls-7,.cls-8{stroke-miterlimit:10;}.cls-11,.cls-7{fill:#e9c7ff;}.cls-8{fill:#f0fbff;}.cls-9{mix-blend-mode:multiply;}.cls-10,.cls-16{fill:gray;}.cls-10{stroke:#4d4d4d;}.cls-12{fill:#666;}.cls-13{fill:#e6e6e6;}.cls-14{fill:#f7fdc3;}.cls-15{fill:#b3b3b3;}.cls-17{fill:#f2f2f2;}.cls-18{fill:#00d49c;}.cls-20{fill:#ffda81;}.cls-21{fill:#fff;opacity:0.13;}.cls-22{fill:#f09d7f;}.cls-23,.cls-24{fill:none;}.cls-23{stroke:#e6e6e6;}.cls-25{fill:#fffdff;}</style></defs><title>bg1</title><g class="cls-1"><g id="Layer_2" data-name="Layer 2"><g id="Layer_5" data-name="Layer 5"><rect class="cls-2" x="0.5" width="1920" height="1081"/><rect class="cls-3" x="0.5" y="619" width="1920" height="89"/></g><g id="Layer_2-2" data-name="Layer 2"><path class="cls-4" d="M1062.06,369H984.92a11.42,11.42,0,0,1-11.42-11.42S953.5,180,988.5,162c15.56-8,90-6,90-6V352.56A16.44,16.44,0,0,1,1062.06,369Z"/><path class="cls-5" d="M885.06,368H807.92a11.42,11.42,0,0,1-11.42-11.42S776.5,178,811.5,160c15.56-8,90-6,90-6V351.56A16.44,16.44,0,0,1,885.06,368Z"/><rect class="cls-6" x="1156" y="707" width="259.5" height="373"/><rect class="cls-6" x="1416.5" y="707" width="259.5" height="373"/><rect class="cls-7" x="737.5" y="708" width="419" height="135"/><rect class="cls-6" x="245.5" y="708" width="492" height="372.5" transform="translate(983 1788.5) rotate(-180)"/><rect class="cls-8" x="1443.75" y="732" width="203" height="88"/><rect class="cls-6" x="0.5" y="1" width="245" height="377"/><rect class="cls-7" x="-37.67" y="89.95" width="321.34" height="199.1" transform="translate(-66.5 312.5) rotate(-90)"/><g class="cls-9"><polygon class="cls-7" points="212.55 38.95 212.55 339.05 222.55 349.05 222.55 28.95 212.55 38.95"/><polygon class="cls-7" points="222.55 28.83 23.45 28.83 23.45 28.95 33.45 38.95 33.45 38.83 212.55 38.83 212.55 38.95 222.55 28.95 222.55 28.83"/><polygon class="cls-7" points="212.55 339.05 212.55 340.17 33.45 340.17 33.45 340.05 23.45 350.05 23.45 350.17 222.55 350.17 222.55 349.05 212.55 339.05"/><polygon class="cls-7" points="33.45 38.95 23.45 28.95 23.45 350.05 33.45 340.05 33.45 38.95"/></g><rect class="cls-10" x="42.5" y="124" width="15" height="137"/><rect class="cls-6" x="0.5" y="708" width="245" height="372.5"/><rect class="cls-11" x="-37.67" y="796.95" width="321.34" height="199.1" transform="translate(-773.5 1019.5) rotate(-90)"/><g class="cls-9"><polygon class="cls-7" points="212.55 745.95 212.55 1046.05 222.55 1056.05 222.55 735.95 212.55 745.95"/><polygon class="cls-7" points="222.55 735.83 23.45 735.83 23.45 735.95 33.45 745.95 33.45 745.83 212.55 745.83 212.55 745.95 222.55 735.95 222.55 735.83"/><polygon class="cls-7" points="212.55 1046.05 212.55 1047.17 33.45 1047.17 33.45 1047.05 23.45 1057.05 23.45 1057.17 222.55 1057.17 222.55 1056.05 212.55 1046.05"/><polygon class="cls-7" points="33.45 745.95 23.45 735.95 23.45 1057.05 33.45 1047.05 33.45 745.95"/></g><rect class="cls-10" x="42.5" y="831" width="15" height="137"/><rect class="cls-6" x="489.5" y="1" width="245" height="377"/><rect class="cls-7" x="451.33" y="89.95" width="321.34" height="199.1" transform="translate(422.5 801.5) rotate(-90)"/><g class="cls-9"><polygon class="cls-7" points="701.55 38.95 701.55 339.05 711.55 349.05 711.55 28.95 701.55 38.95"/><polygon class="cls-7" points="711.55 28.83 512.45 28.83 512.45 28.95 522.45 38.95 522.45 38.83 701.55 38.83 701.55 38.95 711.55 28.95 711.55 28.83"/><polygon class="cls-7" points="701.55 339.05 701.55 340.17 522.45 340.17 522.45 340.05 512.45 350.05 512.45 350.17 711.55 350.17 711.55 349.05 701.55 339.05"/><polygon class="cls-7" points="522.45 38.95 512.45 28.95 512.45 350.05 522.45 340.05 522.45 38.95"/></g><rect class="cls-10" x="531.5" y="124" width="15" height="137"/><rect class="cls-6" x="245.5" y="1" width="245" height="377" transform="translate(736 379) rotate(-180)"/><rect class="cls-7" x="207.33" y="89.95" width="321.34" height="199.1" transform="translate(178.5 557.5) rotate(-90)"/><g class="cls-9"><polygon class="cls-7" points="278.45 38.95 278.45 339.05 268.45 349.05 268.45 28.95 278.45 38.95"/><polygon class="cls-7" points="268.45 28.83 467.55 28.83 467.55 28.95 457.55 38.95 457.55 38.83 278.45 38.83 278.45 38.95 268.45 28.95 268.45 28.83"/><polygon class="cls-7" points="278.45 339.05 278.45 340.17 457.55 340.17 457.55 340.05 467.55 350.05 467.55 350.17 268.45 350.17 268.45 349.05 278.45 339.05"/><polygon class="cls-7" points="457.55 38.95 467.55 28.95 467.55 350.05 457.55 340.05 457.55 38.95"/></g><rect class="cls-10" x="433.5" y="124" width="15" height="137" transform="translate(882 385) rotate(-180)"/><rect class="cls-6" x="1675.5" y="1" width="245" height="377" transform="translate(3596 379) rotate(-180)"/><rect class="cls-7" x="1637.33" y="89.95" width="321.34" height="199.1" transform="translate(1608.5 1987.5) rotate(-90)"/><g class="cls-9"><polygon class="cls-7" points="1708.45 38.95 1708.45 339.05 1698.45 349.05 1698.45 28.95 1708.45 38.95"/><polygon class="cls-7" points="1698.45 28.83 1897.55 28.83 1897.55 28.95 1887.55 38.95 1887.55 38.83 1708.45 38.83 1708.45 38.95 1698.45 28.95 1698.45 28.83"/><polygon class="cls-7" points="1708.45 339.05 1708.45 340.17 1887.55 340.17 1887.55 340.05 1897.55 350.05 1897.55 350.17 1698.45 350.17 1698.45 349.05 1708.45 339.05"/><polygon class="cls-7" points="1887.55 38.95 1897.55 28.95 1897.55 350.05 1887.55 340.05 1887.55 38.95"/></g><rect class="cls-10" x="1863.5" y="124" width="15" height="137" transform="translate(3742 385) rotate(-180)"/><rect class="cls-6" x="1675.5" y="708" width="245" height="372.5" transform="translate(3596 1788.5) rotate(-180)"/><rect class="cls-7" x="1638.33" y="793.95" width="321.34" height="199.1" transform="translate(905.5 2692.5) rotate(-90)"/><g class="cls-9"><polygon class="cls-7" points="1709.45 741.95 1709.45 1042.05 1699.45 1052.05 1699.45 731.95 1709.45 741.95"/><polygon class="cls-7" points="1699.45 731.83 1898.55 731.83 1898.55 731.95 1888.55 741.95 1888.55 741.83 1709.45 741.83 1709.45 741.95 1699.45 731.95 1699.45 731.83"/><polygon class="cls-7" points="1709.45 1042.05 1709.45 1043.17 1888.55 1043.17 1888.55 1043.05 1898.55 1053.05 1898.55 1053.17 1699.45 1053.17 1699.45 1052.05 1709.45 1042.05"/><polygon class="cls-7" points="1888.55 741.95 1898.55 731.95 1898.55 1053.05 1888.55 1043.05 1888.55 741.95"/></g><rect class="cls-10" x="1864.5" y="827" width="15" height="137" transform="translate(3744 1791) rotate(-180)"/><rect class="cls-11" x="232.8" y="771.47" width="321.34" height="250.05" transform="translate(-503.03 1289.97) rotate(-90)"/><g class="cls-9"><polygon class="cls-7" points="278.45 745.95 278.45 1046.05 268.45 1056.05 268.45 735.95 278.45 745.95"/><polygon class="cls-7" points="268.45 735.83 518.5 735.83 518.5 735.95 508.5 745.95 508.5 745.83 278.45 745.83 278.45 745.95 268.45 735.95 268.45 735.83"/><polygon class="cls-7" points="278.45 1046.05 278.45 1047.17 508.5 1047.17 508.5 1047.05 518.5 1057.05 518.5 1057.17 268.45 1057.17 268.45 1056.05 278.45 1046.05"/><polygon class="cls-7" points="508.5 745.95 518.5 735.95 518.5 1057.05 508.5 1047.05 508.5 745.95"/></g><rect class="cls-10" x="479.5" y="831" width="15" height="137" transform="translate(974 1799) rotate(-180)"/><rect class="cls-8" x="455.39" y="818.06" width="320.17" height="156.05" transform="translate(-280.61 1511.56) rotate(-90)"/><rect class="cls-10" x="608" y="715.5" width="15" height="108" transform="translate(1385 154) rotate(90)"/><rect class="cls-11" x="1181.58" y="851.47" width="208.34" height="203.05" transform="translate(332.75 2238.75) rotate(-90)"/><g class="cls-9"><polygon class="cls-7" points="1194.22 858.95 1194.22 1046.05 1184.22 1056.05 1184.22 848.95 1194.22 858.95"/><polygon class="cls-7" points="1184.22 848.83 1387.28 848.83 1387.28 848.95 1377.28 858.95 1377.28 858.83 1194.22 858.83 1194.22 858.95 1184.22 848.95 1184.22 848.83"/><polygon class="cls-7" points="1194.22 1046.05 1194.22 1047.17 1377.28 1047.17 1377.28 1047.05 1387.28 1057.05 1387.28 1057.17 1184.22 1057.17 1184.22 1056.05 1194.22 1046.05"/><polygon class="cls-7" points="1377.28 858.95 1387.28 848.95 1387.28 1057.05 1377.28 1047.05 1377.28 858.95"/></g><rect class="cls-10" x="1343.28" y="884" width="15" height="137" transform="translate(2701.55 1905) rotate(-180)"/><rect class="cls-10" x="1537.75" y="673" width="15" height="159" transform="translate(2297.75 -792.75) rotate(90)"/><rect class="cls-7" x="737.5" y="843" width="419" height="237.5"/><rect class="cls-8" x="1184.25" y="732" width="203" height="88"/><rect class="cls-10" x="1278.25" y="673" width="15" height="159" transform="translate(2038.25 -533.25) rotate(90)"/><rect class="cls-10" x="939.5" y="618" width="15" height="245" transform="translate(1687.5 -206.5) rotate(90)"/><rect class="cls-10" x="939.5" y="751" width="15" height="245" transform="translate(1820.5 -73.5) rotate(90)"/><rect class="cls-11" x="1441.08" y="851.47" width="208.34" height="203.05" transform="translate(592.25 2498.25) rotate(-90)"/><g class="cls-9"><polygon class="cls-7" points="1636.78 858.95 1636.78 1046.05 1646.78 1056.05 1646.78 848.95 1636.78 858.95"/><polygon class="cls-7" points="1646.78 848.83 1443.72 848.83 1443.72 848.95 1453.72 858.95 1453.72 858.83 1636.78 858.83 1636.78 858.95 1646.78 848.95 1646.78 848.83"/><polygon class="cls-7" points="1636.78 1046.05 1636.78 1047.17 1453.72 1047.17 1453.72 1047.05 1443.72 1057.05 1443.72 1057.17 1646.78 1057.17 1646.78 1056.05 1636.78 1046.05"/><polygon class="cls-7" points="1453.72 858.95 1443.72 848.95 1443.72 1057.05 1453.72 1047.05 1453.72 858.95"/></g><rect class="cls-10" x="1472.72" y="884" width="15" height="137"/><polygon class="cls-12" points="49.5 648 196.5 648 255.5 549 110.5 549 49.5 648"/><path class="cls-13" d="M159.5,545h19l45-70s10-17,0-21-21,15-21,15S159.5,529,159.5,545Z"/><path class="cls-13" d="M198.5,545h19l45-70s10-17,0-21-21,15-21,15S198.5,529,198.5,545Z"/><path class="cls-13" d="M126.5,545h19l45-70s10-17,0-21-21,15-21,15S126.5,529,126.5,545Z"/><path class="cls-14" d="M346.5,529a141,141,0,0,0,43.91,102.48,143,143,0,0,0,33.08,23.67c21,4.84,43.17,4.84,68,4.84a485.75,485.75,0,0,0,62.31-4.48,143,143,0,0,0,34.35-24.59A140.93,140.93,0,0,0,631.5,529Z"/><path class="cls-13" d="M900.5,482c4,1,12,3,21,0,5.11-1.7,5,30,3,33-2.23,4.47-24.65,5.71-27,1C893.5,500,897.5,482,900.5,482Z"/><path class="cls-13" d="M900.5,487h19s9.25-32.67,37-22c26,10,20,90,20,90l-2,82h20l2-83s1-36,0-52-8-61-48-61C903.5,441,900.5,487,900.5,487Z"/><path class="cls-13" d="M991.5,599s8-26,39-26,60-2,60,9-45-12-73,27l-17,28H986.75Z"/><polygon class="cls-15" points="1130.5 682 756.5 682 786.5 633 1100.5 633 1130.5 682"/><polygon class="cls-16" points="786.5 633 786.5 682 756.5 682 786.5 633"/><polygon class="cls-13" points="1100.5 633 1101.5 682 1130.5 682 1100.5 633"/><rect class="cls-13" x="763.5" y="174" width="395" height="15"/><rect class="cls-17" x="1526.5" y="378" width="65" height="109"/><rect class="cls-16" x="1543.5" y="409" width="6" height="9"/><rect class="cls-16" x="1570.5" y="409" width="5" height="9"/><rect class="cls-16" x="1555.5" y="396" width="8" height="8"/><rect class="cls-16" x="1544.5" y="460" width="6" height="9"/><rect class="cls-16" x="1570.5" y="459" width="5" height="9"/><rect class="cls-16" x="1556.5" y="447" width="8" height="8"/><path class="cls-13" d="M1482.55,440c.62.16,1,.33,1,.5V440Z"/><path class="cls-18" d="M988.5,162c23-12,100.3-9,109,0,27,28,17,231.13,17,231.13a9.87,9.87,0,0,1-9.87,9.88H1001a11.45,11.45,0,0,1-11.45-11.45S1009.5,162,988.5,162Z"/><path class="cls-19" d="M811.5,160c23-12,85-14,104,0,10.09,7.43,5,138.13,5,138.13a9.88,9.88,0,0,1-9.87,9.88H823a11.45,11.45,0,0,1-11.45-11.45S832.5,160,811.5,160Z"/><ellipse class="cls-20" cx="489" cy="529" rx="142.5" ry="15"/><path class="cls-21" d="M1283.5,541.56c0,36.6,10,69.19,26,92.66a96.91,96.91,0,0,0,19.62,21.4c12.45,4.38,25.6,4.38,40.32,4.38a191.14,191.14,0,0,0,36.95-4.05,96.93,96.93,0,0,0,20.37-22.23c15.87-23.43,25.7-55.81,25.7-92.16Z"/><rect class="cls-13" x="1420.5" y="427" width="37" height="37" rx="8.33" ry="8.33"/><rect class="cls-22" x="1205.5" y="404" width="226" height="83" rx="33.11" ry="33.11"/><path class="cls-23" d="M1384.5,564c0,33.41-9.84,47-19.5,47s-21.5-13.59-21.5-47c0-8.35,17.49-29.81,18.38-37,2.66-21.71-4.12-37,3.12-37s-.53,15.24,2.12,37C1368,534.19,1384.5,555.65,1384.5,564Z"/><path class="cls-23" d="M1374.5,563.5c0,33.41-3.75,49.5-9,49.5s-10-16.09-10-49.5c0-8.13,13.25-28.88,13.71-36,1.42-22-8.18-37.54-4.21-37.54s-6.69,15.24-5.25,37C1360.23,534.19,1374.5,555.15,1374.5,563.5Z"/><path class="cls-23" d="M1398.5,564c0,33.41-16.43,53-33,53s-34-20.59-34-54c0-8.35,17.34-28.81,18.86-36,4.55-21.71,2.22-37,14.64-37s9.09,15.24,13.64,37C1380.16,534.19,1398.5,555.65,1398.5,564Z"/><path class="cls-23" d="M1409,563.5c0,33.41-19.2,50.5-43.5,50.5s-44.5-17.09-44.5-50.5c0-8.35,19.27-30.26,21.5-37.5,6.68-21.71,4.27-36,22.5-36s15.82,16.29,22.5,38C1389.73,535.24,1409,555.15,1409,563.5Z"/><path class="cls-13" d="M1206.2,440h-.7v.5C1205.5,440.33,1205.74,440.16,1206.2,440Z"/><path class="cls-13" d="M1431.5,440.5c0,2.49-50.59,4.5-113,4.5s-113-2-113-4.5V451h.7c-.46.16-.7.33-.7.5,0,2.49,50.59,4.5,113,4.5s113-2,113-4.5c0-.17-.24-.34-.7-.5h.7Z"/><path class="cls-22" d="M1343.5,483s-70-1-70,79,184,75,184,75,47,3,51,20c4.72,20.07-24,19-51,20s-241,0-241,0-35,3-35-14c0-12,10.58-11.73,33-26,22-14,57-137,12-162S1343.5,483,1343.5,483Z"/><ellipse class="cls-24" cx="1368" cy="541.56" rx="84.5" ry="13.56"/><path class="cls-24" d="M1283.5,541.56c0,36.6,10,69.19,26,92.66a96.91,96.91,0,0,0,19.62,21.4c12.45,4.38,25.6,4.38,40.32,4.38a191.14,191.14,0,0,0,36.95-4.05,96.93,96.93,0,0,0,20.37-22.23c15.87-23.43,25.7-55.81,25.7-92.16Z"/><rect class="cls-22" x="1324.5" y="469" width="82" height="43" rx="21.5" ry="21.5"/><path class="cls-25" d="M1431.5,601s-16,60-68,48,10-7,37.5-30.5S1431.5,601,1431.5,601Z"/></g></g></g></svg>