<svg xmlns="http://www.w3.org/2000/svg" viewBox="0 0 1084 1082.97"><defs><style>.cls-1{isolation:isolate;}.cls-2{fill:#f7f5f0;}.cls-3{fill:#c4c4c4;}.cls-4{fill:#afafaf;}.cls-5{fill:#edebe8;}.cls-6{fill:#dddad0;mix-blend-mode:multiply;}.cls-7{fill:#d8d8d8;}.cls-8{fill:#fff;}</style></defs><title>fridge</title><g class="cls-1"><g id="Layer_2" data-name="Layer 2"><g id="Layer_1-2" data-name="Layer 1"><rect class="cls-2" y="2.94" width="1084" height="1080.03"/><polygon class="cls-3" points="1041.13 1.64 1041.13 1043.47 946.33 964.41 947.72 82.67 1041.13 1.64"/><polygon class="cls-4" points="41.09 0 41.09 1040.95 143.16 961.96 141.66 80.97 41.09 0"/><polygon class="cls-5" points="141.66 113.97 947.1 113.97 1041.54 34.5 41.09 33 141.66 113.97"/><rect class="cls-6" x="141.66" y="114.45" width="805.79" height="900.52"/><polygon class="cls-7" points="140.6 787.97 948.03 787.97 1041.54 869.97 42.59 865.97 140.6 787.97"/><polygon class="cls-7" points="140.6 408.97 947.99 408.97 1041.5 466.97 42.59 464.14 140.6 408.97"/><polygon class="cls-7" points="142.1 208.01 949.53 208.01 1043.04 252.01 44.09 249.87 142.1 208.01"/><rect class="cls-8" x="42.5" y="464.98" width="999" height="53"/><rect class="cls-8" x="41" y="866.97" width="999" height="53"/><rect class="cls-8" x="42.5" y="251.01" width="999" height="53"/><polygon class="cls-5" points="143.16 961.96 948.6 961.96 1041.54 1040.95 41.09 1040.95 143.16 961.96"/><rect class="cls-2" x="41.09" y="3.24" width="1000.45" height="31.26"/></g></g></g></svg>