<svg xmlns="http://www.w3.org/2000/svg" viewBox="0 0 289.61 84.7"><defs><style>.cls-1{fill:#d85288;}.cls-2{fill:#ff99c3;}.cls-3{fill:#64aa2d;}.cls-4{fill:#9bf456;}.cls-5{fill:#2e3192;}.cls-6{fill:#40ceff;}.cls-7{fill:#00d49c;}.cls-8{fill:#39ffc6;}.cls-9{fill:#7c1d7c;}.cls-10{fill:#c045dd;}</style></defs><title>recipe</title><g id="Layer_2" data-name="Layer 2"><g id="Layer_1-2" data-name="Layer 1"><polygon class="cls-1" points="47.95 34.7 49.55 26.59 43.87 25.26 41.32 39.15 47.95 34.7"/><path class="cls-1" d="M43.76,68.23,32.68,66,21.61,46.58l-9-1.81L9.32,61.29,0,59.41,10,9.93c7.83,1.58,15.66,3.23,23.49,4.81C45.1,17.16,49.68,26.16,48,34.7c-1.37,6.78-5.85,13-15.63,13L43.89,67.6ZM17.53,20.56,14.34,36.37l14.19,2.86C34.46,40.43,37.8,37,38.59,33s-1-8.43-6.88-9.61Z"/><path class="cls-2" d="M45.36,60.12,34.27,57.89,23.21,38.47l-9-1.81L10.91,53.18,1.59,51.3l10-49.48C19.41,3.4,27.23,5,35.06,6.63,46.69,9,51.27,18,49.55,26.59c-1.37,6.78-5.85,13-15.63,13L45.48,59.49ZM19.12,12.45,15.93,28.26l14.19,2.86c5.93,1.2,9.27-2.24,10.06-6.2s-1-8.43-6.88-9.61Z"/><polygon class="cls-1" points="45.36 60.12 43.76 68.23 32.68 66 34.27 57.89 45.36 60.12"/><path class="cls-3" d="M107.31,76.42,70.5,84.7,59.43,35.53l36.81-8.29,2,9L70.65,42.45,73.2,53.76l26.62-6,1.95,8.64-26.62,6,2.5,11.1,27.61-6.21Z"/><path class="cls-4" d="M106,70.56,69.18,78.85,58.11,29.67l36.81-8.29,2,9L69.33,36.6,71.88,47.9l26.62-6,1.95,8.64-26.62,6,2.5,11.1,27.61-6.21Z"/><path class="cls-3" d="M282.58,70l-37.44-4.7,6.28-50L288.86,20l-1.15,9.14-28.08-3.53-1.45,11.5,27.08,3.4-1.1,8.79-27.08-3.4-1.42,11.29,28.08,3.53Z"/><path class="cls-4" d="M283.32,64.09l-37.44-4.7,6.28-50,37.44,4.7-1.15,9.14L260.38,19.7l-1.45,11.5L286,34.6l-1.1,8.79L257.83,40l-1.42,11.29,28.08,3.53Z"/><polygon class="cls-3" points="112.16 24.86 111.74 31.78 115.96 31.72 112.16 24.86"/><polygon class="cls-5" points="156.73 46.3 156.34 52.29 151.63 49 156.73 46.3"/><path class="cls-5" d="M156.34,52.29a26.57,26.57,0,0,1-19.6,6.23c-18.68-1.21-25.75-14.59-25-27.67s10.2-26,28.38-24.78a26,26,0,0,1,18,8.89l-6.72,5.7a17.32,17.32,0,0,0-11.84-5.53c-12.14-.79-18,7.92-18.45,16.34s3.78,17.35,16.21,18.15a18.56,18.56,0,0,0,13-4.28Z"/><path class="cls-6" d="M156.73,46.3a26.57,26.57,0,0,1-19.6,6.23c-18.68-1.21-25.75-14.59-25-27.67s10.2-26,28.38-24.78a26,26,0,0,1,18,8.89l-6.72,5.7A17.32,17.32,0,0,0,140,9.13c-12.14-.79-18,7.92-18.45,16.34s3.78,17.35,16.21,18.15a18.56,18.56,0,0,0,13-4.28Z"/><polygon class="cls-5" points="158.51 8.96 158.12 14.95 151.4 20.65 151.79 14.66 158.51 8.96"/><path class="cls-7" d="M173.53,79.14l2.28-50.35,9.42.43L183,79.57Z"/><path class="cls-8" d="M173.87,71.65l2.28-50.35,9.42.43L183.3,72.08Z"/><polygon class="cls-9" points="236.68 16.2 237.67 24.75 235.68 28.75 231.45 22.7 236.68 16.2"/><path class="cls-9" d="M221.34,44.38,207.18,46l1.72,14.73-9.44,1.1L193.63,11.8c7.87-.92,15.73-1.9,23.59-2.82C241.68,6.13,245.87,41.53,221.34,44.38Zm-15.17-7,14.16-1.65c12.09-1.41,10-19.14-2.07-17.74l-14.16,1.65Z"/><path class="cls-10" d="M220.42,36.43l-14.16,1.65L208,52.81l-9.44,1.1L192.7,3.85c7.87-.92,15.73-1.9,23.59-2.82C240.75-1.82,244.95,33.57,220.42,36.43Zm-15.17-7,14.16-1.65c12.09-1.41,10-19.14-2.07-17.74l-14.16,1.65Z"/></g></g></svg>